<?xml version="1.0" encoding="UTF-8" standalone="no"?>
<!-- Created with Inkscape (http://www.inkscape.org/) -->

<svg
   xmlns:dc="http://purl.org/dc/elements/1.1/"
   xmlns:cc="http://creativecommons.org/ns#"
   xmlns:rdf="http://www.w3.org/1999/02/22-rdf-syntax-ns#"
   xmlns:svg="http://www.w3.org/2000/svg"
   xmlns="http://www.w3.org/2000/svg"
   xmlns:sodipodi="http://sodipodi.sourceforge.net/DTD/sodipodi-0.dtd"
   xmlns:inkscape="http://www.inkscape.org/namespaces/inkscape"
   width="83.38826mm"
   height="83.388252mm"
   viewBox="0 0 83.38826 83.388252"
   version="1.1"
   id="svg40"
   inkscape:version="0.92.5 (2060ec1f9f, 2020-04-08)"
   sodipodi:docname="spiraltile5.svg">
  <defs
     id="defs34" />
  <sodipodi:namedview
     id="base"
     pagecolor="#ffffff"
     bordercolor="#666666"
     borderopacity="1.0"
     inkscape:pageopacity="0.0"
     inkscape:pageshadow="2"
     inkscape:zoom="1.4142136"
     inkscape:cx="9.408401"
     inkscape:cy="220.00391"
     inkscape:document-units="mm"
     inkscape:current-layer="use3922"
     showgrid="true"
     fit-margin-top="0"
     fit-margin-left="0"
     fit-margin-right="0"
     fit-margin-bottom="0"
     inkscape:window-width="2560"
     inkscape:window-height="1334"
     inkscape:window-x="1920"
     inkscape:window-y="34"
     inkscape:window-maximized="1"
     inkscape:snap-object-midpoints="true">
    <inkscape:grid
       type="xygrid"
       id="grid85" />
  </sodipodi:namedview>
  <metadata
     id="metadata37">
    <rdf:RDF>
      <cc:Work
         rdf:about="">
        <dc:format>image/svg+xml</dc:format>
        <dc:type
           rdf:resource="http://purl.org/dc/dcmitype/StillImage" />
        <dc:title></dc:title>
      </cc:Work>
    </rdf:RDF>
  </metadata>
  <g
     inkscape:label="Layer 1"
     inkscape:groupmode="layer"
     id="layer1"
     transform="translate(-63.38325,-123.01421)">
    <g
       inkscape:tile-y0="64.994933"
       inkscape:tile-x0="49.514806"
       id="use3922"
       transform="translate(13.868514,58.019262)">
      <path
         style="fill:#f6f0dc;stroke:none;stroke-width:0.99999994;stroke-linecap:butt;stroke-linejoin:miter;stroke-miterlimit:4;stroke-dasharray:none;fill-opacity:1"
         d="M 0 0 L 0 127.16406 L 0.00390625 127.16406 C 7.7908261 127.16406 15.575412 130.13595 21.513672 136.07422 C 33.390172 147.95074 33.390182 167.21918 21.513672 179.0957 C 15.575422 185.03397 7.7881298 188.00196 0 188.00195 L 0 315.16797 L 127.16602 315.16797 C 127.16553 307.38104 130.13547 299.59501 136.07422 293.65625 C 142.01248 287.71797 149.79707 284.74609 157.58398 284.74609 C 161.57711 284.74609 165.54913 285.58298 169.29297 287.14453 C 169.37736 287.17743 169.46658 287.15545 169.55078 287.18945 L 169.51367 287.29297 C 172.98012 288.77417 176.26801 290.82856 179.0957 293.65625 C 185.03446 299.59501 188.00245 307.38104 188.00195 315.16797 L 315.16797 315.16797 L 315.16797 187.99805 C 307.44774 187.94682 299.74401 184.98228 293.85742 179.0957 C 284.87148 170.1098 282.74174 156.91564 287.35352 145.86914 C 287.38642 145.78486 287.36628 145.69563 287.39648 145.61133 L 287.5 145.64844 C 288.98108 142.18545 291.03031 138.89938 293.85547 136.07422 C 299.74115 130.18854 307.45009 127.22212 315.16797 127.16992 L 315.16797 0 L 188.00195 0 C 188.00195 7.7881295 185.03396 15.577365 179.0957 21.515625 C 167.21918 33.392125 147.95073 33.392135 136.07422 21.515625 C 130.13596 15.577365 127.16602 7.7881295 127.16602 0 L 0 0 z M 128.18164 0 C 128.18164 7.5239795 131.05375 15.047876 136.79688 20.791016 C 148.2831 32.277271 166.88482 32.277271 178.37109 20.791016 C 184.11423 15.047876 186.98633 7.5239795 186.98633 0 L 182.07031 0 C 182.24559 3.27906 181.7762 6.6262186 180.57227 9.8300781 C 175.57862 23.118978 160.1894 29.580444 147.05859 24.615234 C 136.56994 20.649154 130.07292 10.62531 129.54688 0 L 128.18164 0 z M 130.57422 0 C 131.10023 10.21527 137.35102 19.84889 147.41992 23.65625 C 160.02931 28.42429 174.82256 22.21242 179.61133 9.46875 C 180.77063 6.38366 181.21763 3.15884 181.04102 0 L 175.4707 0 C 175.62407 2.39945 175.3137 4.8507319 174.45898 7.2011719 C 170.86333 17.088952 159.49061 21.915624 149.75195 18.339844 C 141.85132 15.438974 136.95152 7.9612395 136.49023 0 L 130.57422 0 z M 137.51953 0 C 137.98125 7.5496195 142.63241 14.636259 150.10742 17.380859 C 159.32501 20.765309 170.10455 16.192709 173.5 6.8554688 C 174.31337 4.6187288 174.60053 2.28354 174.44531 0 L 169.62695 0 C 169.75525 1.6158 169.57287 3.2711381 169.02539 4.8613281 C 166.66656 11.712858 158.87679 15.080069 152.16602 12.730469 C 146.58884 10.777739 143.11331 5.5743795 142.7168 0 L 137.51953 0 z M 143.74219 0 C 144.13789 5.1601495 147.36258 9.970676 152.50586 11.771484 C 158.69608 13.938824 165.90009 10.821667 168.06641 4.5292969 C 168.57618 3.0485769 168.73767 1.50433 168.60547 0 L 164.65234 0 C 164.75551 0.94509995 164.67946 1.9171556 164.39062 2.8535156 C 163.08519 7.0859956 158.35358 9.1920494 154.25586 7.8808594 C 150.69833 6.7424994 148.46633 3.50423 148.14258 0 L 143.74219 0 z M 149.17578 0 C 149.49574 3.08046 151.46604 5.9123 154.57227 6.90625 C 158.15032 8.05116 162.28023 6.2155633 163.4082 2.5585938 C 163.66699 1.7195038 163.72547 0.84506995 163.61719 0 L 160.71875 0 C 160.79025 0.40522995 160.78822 0.8253086 160.69922 1.2304688 C 160.23384 3.3495483 157.96257 4.4310806 155.98242 3.9316406 C 154.08052 3.4519706 152.87602 1.80977 152.63281 0 L 149.17578 0 z M 153.67773 0 C 153.91188 1.3672 154.82727 2.5865167 156.23438 2.9414062 C 157.69605 3.3100762 159.37348 2.5090125 159.70312 1.0078125 C 159.77665 0.6730425 159.75632 0.32628 159.66992 0 L 158.30664 0 C 158.39321 0.33976 158.23876 0.69674 158.04102 0.875 C 157.82846 1.06662 157.59347 1.1589219 157.31836 1.1699219 C 156.82477 1.1898619 156.40519 0.91864812 156.16602 0.58007812 C 156.04054 0.40240817 155.95384 0.20524 155.90234 0 L 153.67773 0 z M 157.01172 0 C 157.09314 0.11114 157.16223 0.15734375 157.28125 0.15234375 C 157.27155 0.15274375 157.35428 0.12323433 157.36328 0.11523438 C 157.37198 0.10715438 157.32204 0.22924375 157.33984 0.27734375 C 157.38274 0.39126375 157.39439 0.37385938 157.40039 0.38085938 C 157.40679 0.38805933 157.40629 0.39465625 157.42969 0.41015625 C 157.45293 0.42575625 157.49834 0.47175 157.65039 0.46875 C 157.80241 0.46554 158.01424 0.302125 158.05664 0.203125 L 157.58398 0 L 157.01172 0 z M 139.64648 29.8125 L 140.35547 30.521484 L 132.17578 38.701172 L 131.4668 37.992188 L 139.64648 29.8125 z M 175.35352 29.8125 L 183.53125 37.992188 L 182.82422 38.701172 L 174.64453 30.521484 L 175.35352 29.8125 z M 114.49609 54.962891 L 115.20508 55.671875 L 98.234375 72.642578 L 97.525391 71.933594 L 114.49609 54.962891 z M 200.50195 54.962891 L 217.47461 71.933594 L 216.76562 72.642578 L 199.79492 55.671875 L 200.50195 54.962891 z M 80.554688 88.904297 L 81.263672 89.613281 L 64.292969 106.58398 L 63.591797 105.875 L 80.554688 88.904297 z M 234.44531 88.904297 L 251.41602 105.875 L 250.70703 106.58398 L 233.73633 89.613281 L 234.44531 88.904297 z M 46.619141 122.8457 L 47.320312 123.54688 L 30.349609 140.51953 L 29.648438 139.81641 L 46.619141 122.8457 z M 268.37891 122.8457 L 285.34961 139.81641 L 284.64844 140.51953 L 267.67773 123.54688 L 268.37891 122.8457 z M 0 128.17578 L 0 133.09961 C 0.53589998 133.07091 1.0727181 133.05355 1.6113281 133.06055 C 4.3679581 133.09387 7.148275 133.59064 9.828125 134.59766 C 23.117035 139.59136 29.580434 154.97463 24.615234 168.10547 C 20.649304 178.59367 10.62484 185.08869 0 185.61523 L 0 186.98828 C 7.5239798 186.98829 15.047886 184.11619 20.791016 178.37305 C 32.277284 166.8868 32.277274 148.2773 20.791016 136.79102 C 15.047886 131.04788 7.5273361 128.17578 0.00390625 128.17578 L 0.001953125 128.17578 L 0 128.17578 z M 315.16797 128.17969 C 307.71364 128.2319 300.27053 131.10057 294.58008 136.79102 C 291.79105 139.58001 289.73928 142.81542 288.30469 146.24023 C 282.96671 160.61533 290.00781 177.39732 304.49414 182.90625 C 307.9708 184.22839 311.60223 184.76445 315.16797 184.60742 L 315.16797 178.69531 C 312.40627 178.82901 309.59184 178.43519 306.89258 177.43555 C 295.34733 173.15992 289.72336 159.83114 293.97461 148.43945 C 297.36887 139.34417 305.98418 133.67764 315.16797 133.11133 L 315.16797 128.17969 z M 1.1875 134.08398 C 0.79106461 134.08637 0.3947775 134.09906 0 134.12109 L 0 139.69727 C 0.11632 139.68987 0.23109625 139.67102 0.34765625 139.66602 C 2.6346962 139.56485 4.9647119 139.89767 7.2011719 140.71094 C 17.088952 144.30655 21.915624 155.6793 18.339844 165.41797 C 15.439164 173.31806 7.9606398 178.21588 0 178.67773 L 0 184.5957 C 10.21496 184.06939 19.847027 177.81859 23.654297 167.75 C 28.422327 155.14059 22.210467 140.33956 9.4667969 135.55078 C 6.7678944 134.5366 3.9625477 134.06727 1.1875 134.08398 z M 315.16797 134.13281 C 306.39222 134.69828 298.16493 140.11853 294.92773 148.79297 C 290.87101 159.66338 296.25046 172.40374 307.24805 176.47656 C 309.83045 177.43293 312.52488 177.80488 315.16797 177.66992 L 315.16797 172.47266 C 313.23904 172.58283 311.27123 172.32571 309.38086 171.6543 C 301.05955 168.6984 296.98282 159.17066 299.92383 150.99414 C 302.31073 144.35811 308.51405 140.21557 315.16797 139.7168 L 315.16797 134.13281 z M 1.7207031 140.69336 C 1.14587 140.67552 0.57072998 140.68588 0 140.72461 L 0 145.53516 C 0.47120998 145.49706 0.94441186 145.47859 1.4199219 145.49609 C 2.5770819 145.53868 3.7391375 145.74834 4.8671875 146.13672 C 11.718717 148.49548 15.085928 156.29309 12.736328 163.00391 C 10.782918 168.58301 5.5765798 172.05863 0 172.45312 L 0 177.65234 C 7.5490698 177.1901 14.634486 172.53896 17.378906 165.06445 C 20.763356 155.84687 16.190756 145.06534 6.8535156 141.66992 C 5.1764406 141.06007 3.4452025 140.74686 1.7207031 140.69336 z M 315.16797 140.74219 C 308.92658 141.24058 303.11711 145.13352 300.88477 151.33984 C 298.13112 158.9955 301.95366 167.93047 309.7207 170.68945 C 311.49946 171.32121 313.35254 171.55335 315.16797 171.44141 L 315.16797 167.04297 C 313.96776 167.12741 312.74022 166.987 311.55859 166.59766 C 306.07299 164.79017 303.36103 158.60025 305.16602 153.25195 C 306.67045 148.79413 310.74875 145.98789 315.16797 145.55859 L 315.16797 140.74219 z M 1.1367188 146.52148 C 0.75673511 146.51702 0.3767 146.53138 0 146.56445 L 0 150.51758 C 0.28086 150.48678 0.56351625 150.46575 0.84765625 150.46875 C 1.5216662 150.4747 2.199805 150.57585 2.859375 150.7793 C 7.0918648 152.08482 9.1900962 156.80852 7.8789062 160.90625 C 6.7401364 164.46505 3.5036 166.69705 0 167.01953 L 0 171.42188 C 5.1599398 171.0281 9.9687816 167.80716 11.769531 162.66406 C 13.936881 156.47384 10.827526 149.26979 4.5351562 147.10352 C 3.4233039 146.72074 2.2766694 146.53488 1.1367188 146.52148 z M 315.16797 146.58594 C 311.16731 147.01095 307.48813 149.56217 306.13281 153.57812 C 304.50338 158.40624 306.95526 164.01177 311.875 165.63281 C 312.95231 165.98783 314.0734 166.10673 315.16797 166.01953 L 315.16797 162.55469 C 314.57465 162.6103 313.96807 162.56833 313.38086 162.40625 C 310.27654 161.54943 308.71429 158.14175 309.58789 155.17188 C 310.35512 152.56368 312.64219 150.89483 315.16797 150.54492 L 315.16797 146.58594 z M 0.63867188 151.49609 C 0.42491657 151.502 0.2111875 151.51964 0 151.54688 L 0 154.45117 C 0.21163 154.41437 0.42697814 154.39244 0.64257812 154.39844 C 0.83922812 154.40374 1.0355256 154.4283 1.2285156 154.4707 C 3.3475956 154.93611 4.4291175 157.19952 3.9296875 159.17969 C 3.4501875 161.08087 1.80896 162.2835 0 162.52734 L 0 165.99609 C 3.08259 165.67612 5.9181594 163.70385 6.9121094 160.59766 C 8.0570094 157.01962 6.2136106 152.88191 2.5566406 151.75391 C 1.9275781 151.55986 1.2799378 151.47836 0.63867188 151.49609 z M 315.16797 151.57422 C 313.07437 151.91534 311.19832 153.31743 310.56836 155.45898 C 309.84741 157.90985 311.14076 160.73006 313.6543 161.42383 C 314.15193 161.56115 314.66718 161.59095 315.16797 161.53125 L 315.16797 159.29688 C 315.04615 159.31084 314.92263 159.31679 314.79883 159.30469 C 314.14463 159.24119 313.62653 158.85342 313.32227 158.36133 C 313.01655 157.86923 312.89865 157.2676 312.99805 156.69141 C 313.19971 155.52059 314.11342 154.75629 315.16797 154.50195 L 315.16797 151.57422 z M 0.50390625 155.42383 C 0.33353875 155.43044 0.16419 155.45635 0 155.5 L 0 156.85547 C 0.065219998 156.83897 0.1302125 156.82185 0.1953125 156.82227 C 0.4690125 156.82402 0.73131 156.9615 0.875 157.12109 C 1.06662 157.33366 1.1589219 157.5686 1.1699219 157.84375 C 1.1898619 158.33736 0.916695 158.76271 0.578125 159.00195 C 0.400505 159.12747 0.20518 159.21407 0 159.26367 L 0 161.49023 C 1.36708 161.25535 2.5860864 160.33855 2.9414062 158.92969 C 3.3100862 157.46799 2.5148619 155.79637 1.0136719 155.4668 C 0.84566186 155.42989 0.67427375 155.41721 0.50390625 155.42383 z M 315.16797 155.5625 C 314.58524 155.77996 314.11097 156.23688 314.00195 156.86914 C 313.94753 157.18541 314.0185 157.55241 314.18555 157.82227 C 314.35246 158.09212 314.58713 158.26472 314.90234 158.29492 C 314.98349 158.30282 315.07697 158.28486 315.16797 158.25586 L 315.16797 158.05078 C 315.00923 157.98294 314.82431 157.73869 314.82031 157.54102 C 314.81615 157.34335 314.88284 157.24444 314.93164 157.17188 C 314.98038 157.09897 315.03058 157.05397 315.08008 157.00977 C 315.10058 156.99147 315.14617 156.96977 315.16797 156.95117 L 315.16797 155.5625 z M 0.203125 157.11328 L 0 157.58203 L 0 158.15625 C 0.10919 158.07561 0.15539062 158.00692 0.15039062 157.88867 C 0.15079062 157.89857 0.12128125 157.81464 0.11328125 157.80664 C 0.10515125 157.79904 0.22729064 157.84898 0.27539062 157.83008 L 0.28320312 157.83008 C 0.39572312 157.78618 0.37971875 157.77948 0.38671875 157.77148 C 0.39391875 157.76388 0.39270314 157.76293 0.40820312 157.74023 C 0.42380312 157.7168 0.47175 157.67185 0.46875 157.51953 C 0.46554 157.36748 0.302225 157.15558 0.203125 157.11328 z M 288.0625 168.34766 C 289.49724 171.99346 291.63174 175.42475 294.58008 178.37305 C 300.27151 184.06446 307.71188 186.93122 315.16797 186.98242 L 315.16797 185.62695 C 311.48138 185.78307 307.72837 185.22477 304.13281 183.85742 C 296.64103 181.00841 291.09088 175.24099 288.0625 168.34766 z M 30.349609 174.81445 L 47.320312 191.78516 L 46.619141 192.49414 L 29.648438 175.52344 L 30.349609 174.81445 z M 284.64844 174.81445 L 285.34961 175.52344 L 268.37891 192.49414 L 267.67773 191.78516 L 284.64844 174.81445 z M 64.292969 208.75586 L 81.263672 225.72852 L 80.554688 226.43555 L 63.591797 209.46484 L 64.292969 208.75586 z M 250.70703 208.75586 L 251.41602 209.46484 L 234.44531 226.43555 L 233.73633 225.72852 L 250.70703 208.75586 z M 98.234375 242.69922 L 115.20508 259.66992 L 114.49609 260.37109 L 97.525391 243.4082 L 98.234375 242.69922 z M 216.76562 242.69922 L 217.47461 243.4082 L 200.50195 260.37109 L 199.79492 259.66992 L 216.76562 242.69922 z M 132.17578 276.64062 L 140.35547 284.8125 L 139.64648 285.52148 L 131.4668 277.3418 L 132.17578 276.64062 z M 182.82422 276.64062 L 183.53125 277.3418 L 175.35352 285.52148 L 174.64453 284.8125 L 182.82422 276.64062 z M 159.4668 286.28125 C 159.01378 286.27279 158.56111 286.2748 158.10938 286.28906 C 146.99355 286.63973 136.41962 293.3645 132.26367 304.29297 C 130.91673 307.83487 130.38756 311.53796 130.57422 315.16797 L 136.49219 315.16797 C 136.32757 312.33906 136.70963 309.4526 137.73438 306.68555 C 141.07468 297.66582 149.94085 292.25982 159.0918 292.35352 C 161.65406 292.37974 164.23857 292.83572 166.73047 293.76562 C 175.89412 297.18542 181.57718 305.90681 182.07031 315.16797 L 186.98633 315.16797 C 186.98682 307.64518 184.11472 300.12255 178.37109 294.37891 C 175.5781 291.58591 172.34635 289.53237 168.91602 288.09766 C 165.83058 286.9538 162.63789 286.34046 159.4668 286.28125 z M 146.81445 287.86133 C 143.1687 289.29611 139.74512 291.43065 136.79688 294.37891 C 131.05326 300.12255 128.18114 307.64518 128.18164 315.16797 L 129.54688 315.16797 C 129.36114 311.4174 129.91237 307.59288 131.30469 303.93164 C 134.15372 296.43982 139.92111 290.88971 146.81445 287.86133 z M 159.07812 293.37891 C 150.34255 293.29004 141.87525 298.44716 138.69336 307.03906 C 137.7119 309.68921 137.3533 312.45773 137.51953 315.16797 L 142.7168 315.16797 C 142.57514 313.17283 142.81812 311.1302 143.51367 309.17188 C 145.73058 302.93086 151.64208 299.07887 157.9082 298.7832 C 159.99691 298.68465 162.12383 298.98154 164.16797 299.7168 C 170.87302 302.12852 175.0417 308.43569 175.4707 315.16797 L 181.04297 315.16797 C 180.54955 306.31764 175.11117 297.98902 166.36914 294.72656 C 163.99127 293.83918 161.52409 293.40379 159.07812 293.37891 z M 157.96484 299.80273 C 152.09118 300.08019 146.54386 303.68641 144.47461 309.51172 C 143.81863 311.35855 143.59612 313.28636 143.74023 315.16797 L 148.14258 315.16797 C 148.02579 313.90112 148.15258 312.59962 148.56445 311.34961 C 150.03304 306.89255 154.39479 304.26623 158.84766 304.40625 C 159.87525 304.43856 160.90737 304.61862 161.91016 304.95703 C 166.43839 306.48525 169.26776 310.66853 169.62695 315.16797 L 174.44531 315.16797 C 174.01791 308.84819 170.10508 302.93283 163.83008 300.67578 C 161.91615 299.98735 159.92273 299.71025 157.96484 299.80273 z M 158.82031 305.42969 C 154.79857 305.30324 150.85616 307.67068 149.53906 311.66797 C 149.16153 312.81376 149.05674 314.00774 149.17773 315.16797 L 152.63477 315.16797 C 152.54579 314.50897 152.5749 313.82942 152.75586 313.17383 C 153.45203 310.65157 155.83792 309.15148 158.30078 309.14648 C 158.86913 309.14525 159.44119 309.22291 159.99805 309.38672 C 162.67715 310.17477 164.36355 312.56329 164.64648 315.16797 L 168.60547 315.16797 C 168.24654 311.08719 165.67153 307.30462 161.58594 305.92578 C 160.68067 305.62028 159.74841 305.45887 158.82031 305.42969 z M 157.95898 310.17578 C 156.05497 310.31334 154.27727 311.5228 153.74609 313.44727 C 153.58959 314.01401 153.58133 314.60233 153.67773 315.16797 L 155.90234 315.16797 C 155.85644 314.98271 155.83872 314.79033 155.85742 314.59766 C 155.9209 313.94346 156.31649 313.41753 156.80859 313.11328 C 157.17767 312.88396 157.60429 312.76186 158.03711 312.75586 C 158.18138 312.75396 158.32667 312.76416 158.4707 312.78906 C 159.71646 313.00344 160.51792 314.02683 160.71875 315.16797 L 163.61914 315.16797 C 163.34202 312.99138 161.92323 311.01207 159.71094 310.36133 C 159.40458 310.27121 159.09232 310.21232 158.7793 310.18359 C 158.5054 310.15846 158.23099 310.15613 157.95898 310.17578 z M 158.30078 313.80078 C 157.98456 313.74636 157.6176 313.81927 157.34766 313.98633 C 157.07773 314.15323 156.9056 314.3801 156.875 314.69531 C 156.86105 314.83837 156.91615 315.03846 157.00195 315.16016 C 157.00495 315.16416 157.00677 315.16397 157.00977 315.16797 L 157.58789 315.16797 L 157.11133 314.9668 C 157.17916 314.80806 157.4314 314.61728 157.62891 314.61328 C 157.82643 314.60875 157.92525 314.68167 157.99805 314.73047 C 158.07086 314.77919 158.11596 314.82119 158.16016 314.87109 C 158.20438 314.92061 158.23977 314.94421 158.29297 315.08594 C 158.30267 315.11294 158.29964 315.14057 158.30664 315.16797 L 159.66992 315.16797 C 159.4913 314.49557 159.00579 313.9221 158.30078 313.80078 z "
         transform="matrix(0.26458333,0,0,0.26458333,49.514736,64.994948)"
         id="rect54" />
    </g>
  </g>
</svg>
